<svg xmlns="http://www.w3.org/2000/svg" viewBox="0 0 200 200" width="200" height="200">
  <defs>
    <linearGradient id="mainGrad" x1="0%" y1="0%" x2="100%" y2="100%">
      <stop offset="0%" style="stop-color:#3B82F6;stop-opacity:1" />
      <stop offset="50%" style="stop-color:#8B5CF6;stop-opacity:1" />
      <stop offset="100%" style="stop-color:#EC4899;stop-opacity:1" />
    </linearGradient>
    <linearGradient id="iconGrad" x1="0%" y1="0%" x2="100%" y2="100%">
      <stop offset="0%" style="stop-color:#FFFFFF;stop-opacity:1" />
      <stop offset="100%" style="stop-color:#E0E7FF;stop-opacity:1" />
    </linearGradient>
  </defs>
  
  <!-- Background Circle -->
  <circle cx="100" cy="100" r="95" fill="url(#mainGrad)" />
  
  <!-- Inner Circle -->
  <circle cx="100" cy="100" r="85" fill="none" stroke="rgba(255,255,255,0.1)" stroke-width="2" />
  
  <!-- D Letter Shape -->
  <path d="M 75 55 L 75 145 L 110 145 C 130 145 145 130 145 110 C 145 90 130 75 110 75 L 85 75 L 85 55 Z" 
        fill="url(#iconGrad)" opacity="0.95" />
  
  <!-- D Vertical Line Detail -->
  <line x1="85" y1="75" x2="110" y2="75" stroke="#3B82F6" stroke-width="4" stroke-linecap="round" />
  
  <!-- Decorative Dot -->
  <circle cx="130" cy="110" r="4" fill="#FFFFFF" opacity="0.5" />
  
  <!-- Sparkle Stars -->
  <path d="M 50 50 L 53 57 L 60 60 L 53 63 L 50 70 L 47 63 L 40 60 L 47 57 Z" fill="#FFFFFF" opacity="0.6" />
  <path d="M 150 140 L 152 144 L 156 146 L 152 148 L 150 152 L 148 148 L 144 146 L 148 144 Z" fill="#FFFFFF" opacity="0.4" />
  
  <!-- Bottom Text -->
  <text x="100" y="175" text-anchor="middle" fill="#FFFFFF" font-family="Arial, sans-serif" font-size="12" font-weight="bold" letter-spacing="3" opacity="0.8">
    DORIQ
  </text>
</svg>